<svg xmlns="http://www.w3.org/2000/svg" viewBox="0 0 800 600" xml:space="preserve">
  <style>
        .st0 		{fill:none;stroke:#000;stroke-width:.5;stroke-linecap:round;stroke-linejoin:round}
        #Utena 		{fill:#fde138}
        #Vilnius 	{fill:#fff06d}
        #Alytus 	{fill:#fff06d}
        #Panevezys 	{fill:#fde138}
        #Telsiai 	{fill:#283a63}
        #Klaipeda 	{fill:#283a63}
        #Nida 		{fill:#283a63}
        #Siauliai 	{fill:#2b4786}
        #Taurage 	{fill:#2b4786}
        #Marijampole 	{fill:#fff06d}
        #Kaunas 	{fill:#fff06d}
    </style>
  <g id="Lithuania">

    <path id="Utena" class="st0" d="M729.58 197.57 L730.86 214.01 L722.04 229.76 L723.39 241.82 L718.08 248.52 L712.14 269.97 L721.23 273.99 L730.56 272.13 L750.58 275.66 L754.45 281.36 L753.12 284.77 L747.11 287.83 L744.22 282.27 L739.76 280.53 L712.84 291.56 L696.54 290.75 L683.90 285.60 L676.49 286.58 L677.56 277.42 L671.98 272.91 L661.61 273.14 L652.83 280.98 L649.54 277.10 L643.79 277.49 L640.08 272.26 L635.51 274.83 L625.80 269.98 L622.67 280.24 L615.61 286.73 L614.17 292.57 L624.00 306.41 L631.45 311.55 L628.19 315.27 L629.11 318.66 L625.38 322.75 L625.38 327.63 L611.66 324.12 L579.33 333.43 L564.04 330.28 L562.28 322.92 L552.41 317.26 L553.55 307.34 L567.65 297.94 L555.56 292.47 L558.46 282.46 L550.39 281.55 L543.94 274.60 L544.23 270.38 L532.76 270.27 L531.63 262.44 L523.62 265.58 L521.75 260.60 L511.25 258.19 L509.38 252.86 L513.02 247.57 L512.26 244.50 L492.64 228.40 L495.00 224.45 L494.50 215.17 L499.32 209.26 L497.25 203.31 L492.73 199.28 L497.17 197.44 L501.54 199.15 L503.14 196.52 L499.34 191.30 L499.73 185.96 L516.88 187.59 L520.36 184.58 L539.36 183.11 L545.43 189.15 L545.58 192.60 L548.49 192.95 L565.84 186.77 L571.88 187.54 L573.73 179.76 L582.89 174.53 L587.42 181.69 L592.31 179.94 L596.07 185.33 L604.53 181.01 L617.56 180.60 L620.14 184.06 L627.33 173.86 L634.72 174.22 L643.04 153.97 L650.58 145.32 L653.18 134.99 L679.40 158.42 L691.60 181.24 L715.89 195.15 L729.58 197.57z" />

    <path id="Vilnius" class="st0" d="M747.11 287.83 L735.20 296.27 L730.35 313.59 L714.96 308.35 L709.57 312.04 L689.75 309.53 L684.95 327.49 L674.58 345.57 L642.19 351.90 L631.63 366.41 L631.12 379.90 L624.22 387.96 L622.67 409.62 L626.54 429.31 L613.32 441.82 L611.11 459.79 L601.15 475.46 L605.25 484.36 L621.17 480.67 L632.11 496.92 L626.49 516.73 L613.41 520.43 L599.47 517.04 L595.82 510.73 L601.03 506.55 L597.74 501.17 L604.05 499.21 L592.63 485.24 L581.82 495.77 L562.10 493.94 L556.10 510.67 L545.90 519.63 L519.24 517.01 L509.45 500.41 L526.80 481.82 L529.26 468.58 L536.47 465.43 L536.73 453.67 L505.48 463.13 L503.35 456.95 L495.71 453.93 L481.52 458.95 L468.44 455.96 L466.37 434.45 L469.84 422.60 L475.68 420.88 L473.72 403.22 L483.97 395.63 L491.09 396.44 L495.77 377.51 L513.08 362.08 L482.78 341.62 L494.81 324.98 L487.70 314.50 L481.34 314.71 L473.69 299.96 L476.36 292.93 L468.57 288.83 L463.46 273.22 L466.71 255.93 L478.34 249.45 L483.45 237 L495 237 L512.26 245.51 L509.38 253.88 L512.70 260.34 L521.75 261.61 L523.62 266.59 L531.63 263.46 L532.76 271.29 L544.23 271.40 L550.39 282.57 L558.46 283.47 L555.56 293.49 L567.65 298.96 L553.55 308.36 L552.41 318.28 L562.28 323.94 L564.04 331.30 L579.33 334.44 L611.66 325.14 L626.00 328.08 L631.45 312.57 L614.17 293.59 L625.80 271.00 L635.51 275.84 L640.08 273.28 L652.83 282.00 L661.61 274.16 L671.98 273.93 L677.56 278.44 L676.49 287.60 L696.54 291.77 L712.84 292.58 L739.76 281.55 L747.11 287.83z" />

    <path id="Alytus" class="st0" d="M519.23 517.00 L510.97 527.72 L515.66 542.72 L511.72 553.03 L501.69 554.15 L497.02 548.07 L480.35 555.35 L462.16 570.00 L447.58 568.53 L437.03 555.23 L422.05 560.98 L406.90 557.52 L371.59 567.68 L354.52 559.26 L351.27 550.58 L355.83 542.30 L353.11 523.67 L348.11 511.99 L336.47 500.23 L337.52 487.08 L342.62 475.38 L352.16 471.52 L350.91 466.58 L361.17 462.03 L362.12 452.66 L373.26 443.39 L388.44 452.55 L400.26 453.52 L416.78 444.62 L417.42 436.00 L446.21 433.02 L455.65 437.94 L466.37 436.55 L470.85 459.60 L483.52 460.88 L495.71 456.02 L503.34 459.04 L505.48 465.23 L536.72 455.77 L536.46 467.52 L529.25 470.67 L526.80 483.91 L509.45 502.51 L519.23 517.00z" />

   <path id="Telsiai" class="st0" d="M245.05 42.12 L242.16 55.18 L233.85 55.82 L230.55 60.27 L229.49 67.00 L222.17 76.58 L220.48 89.22 L233.14 103.66 L258.45 97.76 L259.99 107.51 L247.89 113.41 L245.82 129.89 L250.18 133.70 L254.31 130.17 L259.41 136.32 L243.62 162.51 L234.64 168.16 L236.23 188.71 L222.71 196.74 L197.52 194.85 L185.17 198.71 L180.18 209.78 L161.09 213.40 L148.77 196.80 L145.38 178.33 L131.57 179.38 L129.15 166.21 L116.80 167.19 L130.69 152.20 L126.70 142.83 L126.98 126.80 L132.39 124.02 L144.36 104.12 L154.49 100.73 L164.61 97.34 L175.20 80.53 L165.06 51.29 L171.85 42.85 L188.12 35.50 L202.70 41.39 L245.05 42.12z" />

    <path id="Klaipeda" class="st0" d="M61.09 110.36 L77.61 107.80 L82.35 90.76 L94.17 77.49 L105.23 74.66 L126.55 59.35 L137.23 58.87 L171.85 42.85 L165.06 51.29 L175.20 80.53 L164.61 97.34 L154.49 100.73 L144.36 104.12 L132.39 124.02 L126.98 126.80 L126.70 142.83 L130.69 152.20 L116.80 167.19 L129.15 166.21 L131.57 179.38 L145.38 178.33 L148.77 196.80 L161.09 213.40 L152.87 219.43 L161.55 246.76 L180.80 253.29 L163.60 282.28 L181.42 289.82 L185.44 306.75 L194.13 302.97 L211.18 308.20 L207.85 324.33 L184.56 332.95 L175.70 322.73 L168.38 325.93 L145.21 315.46 L127.65 301.83 L115.44 301.43 L99.87 281.21 L86.93 289.95 L89.78 279.70 L85.66 264.37 L76.77 269.29 L84.60 254.06 L81.54 232.28 L61.95 174.75 L61.09 110.36z" />

    <path id="Nida" class="st0" d="M53.38 281.40 L45.55 279.38 L64.59 233.72 L64.93 185.62 L70.52 200.02 L70.50 221.34 L65.17 237.75 L67.46 240.65 L53.32 268.21 L53.38 281.40z" />

    <path id="Siauliai" class="st0" d="M316.75 48.45 L330.73 45.17 L358.37 54.83 L369.50 49.35 L381.19 49.22 L383.39 54.80 L399.45 53.58 L433.51 71.62 L431.59 82.58 L435.75 85.81 L435.60 92.42 L429.85 95.52 L422.36 116.90 L417.14 119.30 L417.96 130.57 L424.79 136.07 L423.84 148.04 L409.01 159.74 L419.14 177.11 L417.18 202.92 L406.37 206.86 L400.54 217.11 L378.58 229.33 L372.44 237.29 L366.02 235.45 L366.62 225.70 L360.87 222.18 L350.97 228.11 L335.11 217.54 L326.33 222.92 L322.83 216.39 L317.21 215.12 L309.71 216.04 L298.44 228.58 L279.83 235.98 L272.85 230.09 L253.19 237.36 L249.56 230.86 L251.88 225.98 L236.72 210.89 L229.07 195.32 L222.71 196.74 L236.23 188.71 L234.64 168.16 L243.62 162.51 L259.41 136.32 L254.31 130.17 L250.18 133.70 L245.82 129.89 L247.89 113.41 L259.99 107.51 L258.45 97.76 L233.14 103.66 L220.48 89.22 L222.17 76.58 L229.49 67.00 L230.55 60.27 L233.85 55.82 L242.16 55.18 L245.05 42.12 L254.20 49.04 L285.34 35.31 L301.96 58.82 L316.75 48.45z" />

    <path id="Panevezys" class="st0" d="M521.64 30.00 L546.03 83.25 L617.06 95.60 L621.25 107.05 L653.17 135.00 L634.72 174.22 L627.32 173.86 L620.14 184.07 L617.56 180.60 L604.53 181.01 L596.07 185.33 L592.30 179.94 L587.41 181.70 L582.89 174.53 L573.73 179.76 L571.88 187.54 L548.48 192.95 L539.36 183.12 L516.88 187.59 L499.73 185.96 L503.14 196.52 L492.73 199.28 L499.32 209.26 L494.49 215.17 L495 224.45 L489.04 230.33 L495 237 L483.45 237 L478.34 249.45 L466.71 255.93 L458.73 245.53 L453.07 242.43 L446.91 244.50 L441.87 239.18 L423.06 246.91 L422.70 236.79 L415.46 229.22 L408.02 229.10  L400.54 217.11 L406.37 206.86 L417.18 202.92 L419.14 177.11 L409.01 159.74 L423.84 148.04 L424.79 136.07 L417.96 130.57 L417.14 119.30 L422.36 116.90 L429.85 95.52 L435.60 92.42 L435.75 85.81 L431.59 82.58 L433.51 71.62 L455.00 62.71 L466.56 69.90 L474.64 69.18 L498.44 45.58 L518.61 39.56 L521.64 30.00z" />

    <path id="Taurage" class="st0" d="M244.20 325.57 L207.85 324.41 L211.19 308.28 L194.13 303.05 L185.44 306.83 L181.42 289.90 L163.60 282.36 L180.80 253.38 L167.25 246.14 L161.56 246.85 L152.87 219.52 L160.02 215.94 L160.53 211.60 L178.71 209.87 L183.69 198.79 L196.04 194.93 L230.43 195.32 L236.72 212.32 L251.88 227.41 L250.26 237.30 L262.85 248.76 L265.51 256.45 L271.45 256.32 L272.55 267.54 L279.29 276.90 L287.06 268.42 L297.52 277.12 L296.99 284.05 L315.58 280.45 L322.84 288.21 L335.27 287.34 L353.53 293.78 L345.67 322.56 L334.51 324.14 L296.13 316.94 L286.92 321.55 L244.20 325.57z" />

    <path id="Marijampole" class="st0" d="M273.17 465.84 L267.85 473.37 L256.68 445.16 L259.84 406.18 L262.74 397.02 L275.77 385.47 L277.15 374.25 L274.37 363.10 L265.68 357.98 L266.03 353.52 L251.72 347.89 L244.20 325.58 L286.93 321.46 L296.14 316.85 L334.52 324.05 L345.67 322.47 L354.36 328.36 L362.42 328.51 L365.34 334.39 L344.06 346.69 L351.81 350.82 L355.59 360.85 L363.15 358.90 L372.14 366.63 L374.09 378.79 L369.99 384.95 L374.29 387.32 L378.22 407.83 L371.16 416.07 L378.54 421.54 L376.10 427.82 L387.56 435.79 L389.88 444.08 L387.17 449.83 L374.40 441.66 L363.13 450.08 L361.17 460.59 L352.04 464.08 L352.16 470.07 L340.50 476.66 L336.47 498.79 L310.06 482.85 L301.98 484.64 L300.95 475.09 L291.43 466.66 L276.34 462.68 L273.17 465.84z" />

    <path id="Kaunas" class="st0" d="M466.71 255.93 L463.46 272.21 L467.56 285.96 L476.35 291.91 L473.69 298.94 L481.33 313.69 L487.70 313.48 L495.24 326.21 L482.78 340.61 L513.08 361.06 L495.77 376.50 L491.09 395.42 L483.97 394.61 L473.72 402.20 L475.68 419.86 L469.84 421.58 L466.37 433.43 L455.65 434.83 L446.21 429.91 L428.19 433.94 L420.18 431.95 L415.03 435.29 L416.79 441.51 L401.92 449.87 L388.45 449.44 L387.57 434.13 L376.11 426.16 L378.55 419.87 L371.17 414.40 L378.23 406.16 L374.30 385.65 L369.99 383.28 L374.09 377.13 L372.14 364.96 L363.16 357.23 L355.60 359.18 L351.82 349.15 L344.06 345.02 L365.35 332.72 L362.43 326.85 L354.36 326.70 L345.68 320.81 L353.54 292.03 L335.29 285.58 L322.85 286.45 L315.59 278.69 L297.00 282.30 L297.53 275.37 L287.07 266.66 L279.30 275.15 L272.56 265.78 L271.46 254.56 L262.96 252.36 L262.86 247.01 L253.21 237.03 L272.86 229.76 L279.84 235.65 L298.45 228.25 L309.72 215.71 L317.23 214.79 L322.84 216.06 L326.35 222.59 L335.12 217.21 L350.98 227.78 L360.88 221.85 L366.63 225.37 L366.04 235.12 L372.45 236.96 L384.13 225.03 L402.89 216.88 L408.04 227.43 L415.47 227.55 L422.72 235.12 L423.07 245.24 L441.89 237.51 L446.92 242.83 L453.08 240.76 L458.75 243.86 L466.71 255.93z" />
    </g>
  </svg>
